<?xml version="1.0" encoding="UTF-8"?>
<svg width="500px" height="500px" viewBox="0 0 500 500" version="1.1" xmlns="http://www.w3.org/2000/svg" xmlns:xlink="http://www.w3.org/1999/xlink">
    <!-- Generator: Sketch 63.1 (92452) - https://sketch.com -->
    <title>Returns_Icon_Blue</title>
    <desc>Created with Sketch.</desc>
    <g id="Returns_Icon_Blue" stroke="none" stroke-width="1" fill="none" fill-rule="evenodd" stroke-linejoin="round">
        <g id="LC_ShippingIcon_Vector" transform="translate(31.000000, 44.000000)" stroke="#192C50" stroke-width="12.3069761">
            <path d="M1.51627889,152.083341 L156.584178,77.3975773 C156.938634,77.221718 157.354931,77.221718 157.709387,77.3975773 L312.9531,151.591062 C313.41179,151.810954 313.700259,152.277999 313.691712,152.786597 L313.691712,335.879239 C313.683764,336.383162 313.400225,336.842226 312.9531,337.074773 L157.885201,411.127607 C157.523425,411.26883 157.121768,411.26883 156.759992,411.127607 L1.51627889,336.371518 C1.06314938,336.163843 0.774075021,335.709584 0.777667159,335.211146 L0.777667159,153.278876 C0.769120402,152.770278 1.05758928,152.303233 1.51627889,152.083341 Z" id="Path"></path>
            <path d="M0.672371956,152.434969 L156.23255,229.546965 C156.679675,229.779513 156.963214,230.238576 156.970969,230.7425 L156.970969,411.373746" id="Path"></path>
            <line x1="313.58603" y1="151.94269" x2="157.11162" y2="229.933756" id="Path"></line>
            <path d="M53.1704158,126.309017 L211.402966,202.155152 C211.861655,202.375044 212.150124,202.842089 212.141384,203.350687 L212.141384,267.135986 C212.146944,267.589257 212.381931,268.008797 212.765532,268.250323 C213.149133,268.49185 213.629027,268.52242 214.040175,268.331521 L257.60687,247.233848 C258.06556,247.013956 258.354029,246.546911 258.345482,246.038313 L258.345482,180.283898 C258.345482,179.795813 258.075554,179.347779 257.642033,179.123526 L104.719064,102.679623" id="Path"></path>
            <path d="M265.483335,40.476649 C300.092316,14.1193154 347.167571,11.195413 384.772139,33.0674737 C422.376707,54.9395344 443.110937,97.3036761 437.312726,140.418306 C431.514515,183.532936 400.324807,218.914159 358.277935,230.074407" id="Path" stroke-linecap="round"></path>
            <polyline id="Path" stroke-linecap="round" points="275.961846 0.637209168 258.310126 40.300835 297.762775 53.9791599"></polyline>
        </g>
    </g>
</svg>